<svg width="30" height="30" viewBox="0 0 30 30" fill="none" xmlns="http://www.w3.org/2000/svg">
<g clip-path="url(#clip0)">
<path d="M3.05388 17.1407C3.05307 17.1411 3.05218 17.1415 3.0513 17.142C2.72624 17.311 2.58506 17.7013 2.72721 18.0392C2.86976 18.3781 3.24906 18.5501 3.59793 18.434L13.4336 15.1616L11.5945 18.1649C11.4609 18.3831 11.4892 18.6636 11.6636 18.8508C11.838 19.0379 12.1159 19.0858 12.343 18.9678L14.2718 17.9655C14.3271 17.9368 14.3774 17.8991 14.4206 17.8539L20.1343 11.8854L27.1859 8.20604C29.8565 6.7664 29.5471 5.65974 29.3887 5.35494C29.2659 5.11859 28.9914 4.80168 28.3814 4.63411C27.7627 4.46412 26.9268 4.47768 25.8264 4.6756C25.459 4.74163 25.2563 4.73606 25.0415 4.73017C24.2867 4.7095 23.7747 4.76011 21.2325 6.08109L7.3284 13.3067L1.93631 10.5083C1.73298 10.4028 1.49106 10.4029 1.28773 10.5086L0.379148 10.9809C0.19212 11.078 0.0585285 11.2539 0.0151013 11.4602C-0.028326 11.6665 0.0230118 11.8814 0.154908 12.0456L3.8974 16.7071L3.05388 17.1407Z" fill="black"/>
<path d="M28.6596 22.8035H2.33661C1.59641 22.8035 0.996338 23.4037 0.996338 24.1437C0.996338 24.8838 1.59641 25.484 2.33661 25.484H28.6596C29.3998 25.484 29.9999 24.8839 29.9999 24.1437C29.9998 23.4035 29.3998 22.8035 28.6596 22.8035Z" fill="black"/>
</g>
<defs>
<clipPath id="clip0">
<rect width="30" height="30" fill="white"/>
</clipPath>
</defs>
</svg>
