<svg width="30" height="30" viewBox="0 0 30 30" fill="none" xmlns="http://www.w3.org/2000/svg">
<g clip-path="url(#clip0)">
<path d="M1.02574 10.966C1.02474 10.966 1.02383 10.9658 1.02275 10.9656C0.650848 10.9044 0.293899 11.1389 0.202793 11.505C0.111272 11.872 0.317735 12.2475 0.676677 12.3669L10.7963 15.734L7.43006 17.0745C7.18556 17.1719 7.0359 17.4204 7.0643 17.6819C7.09254 17.9436 7.29194 18.1543 7.55181 18.197L9.75845 18.5602C9.82182 18.5706 9.88643 18.5706 9.9498 18.5601L18.3358 17.1652L26.4127 18.4809C29.5002 18.9412 29.9275 17.839 29.9849 17.49C30.0295 17.2196 29.9987 16.7893 29.5994 16.2754C29.1946 15.7539 28.4974 15.2499 27.469 14.7345C27.1256 14.5624 26.9621 14.4329 26.789 14.2957C26.1799 13.8134 25.7267 13.5394 22.8185 13.0607L6.9105 10.4424L4.1936 4.81345C4.09111 4.60118 3.89179 4.4521 3.65909 4.41381L2.61955 4.24265C2.40553 4.20744 2.18703 4.26997 2.02425 4.41315C1.8613 4.55633 1.77111 4.76495 1.77858 4.98163L1.98829 11.1284L1.02574 10.966Z" fill="black"/>
<path d="M28.4618 23.0092H1.37896C0.617394 23.0092 0 23.6265 0 24.388C0 25.1496 0.617394 25.767 1.37896 25.767H28.4618C29.2234 25.767 29.8409 25.1494 29.8409 24.388C29.8409 23.6266 29.2234 23.0092 28.4618 23.0092Z" fill="black"/>
</g>
<defs>
<clipPath id="clip0">
<rect width="30" height="30" fill="white"/>
</clipPath>
</defs>
</svg>
