<svg width="12" height="12" viewBox="0 0 12 12" fill="none" xmlns="http://www.w3.org/2000/svg">
<path d="M2.87998 0C2.61748 0 2.39998 0.2175 2.39998 0.48V0.96H0.95998C0.681543 0.96 0.47998 1.16156 0.47998 1.44V3.12H11.52V1.44C11.52 1.16156 11.3184 0.96 11.04 0.96H9.59998V0.48C9.59998 0.2175 9.38248 0 9.11998 0H8.63998C8.37748 0 8.15998 0.2175 8.15998 0.48V0.96H3.83998V0.48C3.83998 0.2175 3.62248 0 3.35998 0H2.87998ZM2.87998 0.48H3.35998V1.92H2.87998V0.48ZM8.63998 0.48H9.11998V1.92H8.63998V0.48ZM0.47998 3.6V11.04C0.47998 11.3184 0.681543 11.52 0.95998 11.52H11.04C11.3184 11.52 11.52 11.3184 11.52 11.04V3.6H0.47998ZM2.87998 5.04H4.07998V6.24H2.87998V5.04ZM4.55998 5.04H5.75998V6.24H4.55998V5.04ZM6.23998 5.04H7.43998V6.24H6.23998V5.04ZM7.91998 5.04H9.11998V6.24H7.91998V5.04ZM2.87998 6.72H4.07998V7.92H2.87998V6.72ZM4.55998 6.72H5.75998V7.92H4.55998V6.72ZM6.23998 6.72H7.43998V7.92H6.23998V6.72ZM7.91998 6.72H9.11998V7.92H7.91998V6.72ZM2.87998 8.4H4.07998V9.6H2.87998V8.4ZM4.55998 8.4H5.75998V9.6H4.55998V8.4ZM6.23998 8.4H7.43998V9.6H6.23998V8.4ZM7.91998 8.4H9.11998V9.6H7.91998V8.4Z" fill="#454545"/>
</svg>
