<svg width="26" height="25" viewBox="0 0 26 25" fill="none" xmlns="http://www.w3.org/2000/svg">
<path d="M5.74694 0C5.13381 0 4.62578 0.47125 4.62578 1.04V2.08H1.26228C0.611915 2.08 0.141113 2.51672 0.141113 3.12V6.76H25.9279V3.12C25.9279 2.51672 25.4571 2.08 24.8068 2.08H21.4433V1.04C21.4433 0.47125 20.9352 0 20.3221 0H19.2009C18.5878 0 18.0798 0.47125 18.0798 1.04V2.08H7.98927V1.04C7.98927 0.47125 7.48125 0 6.86811 0H5.74694ZM5.74694 1.04H6.86811V4.16H5.74694V1.04ZM19.2009 1.04H20.3221V4.16H19.2009V1.04ZM0.141113 7.8V23.92C0.141113 24.5233 0.611915 24.96 1.26228 24.96H24.8068C25.4571 24.96 25.9279 24.5233 25.9279 23.92V7.8H0.141113ZM5.74694 10.92H8.54986V13.52H5.74694V10.92ZM9.67102 10.92H12.4739V13.52H9.67102V10.92ZM13.5951 10.92H16.398V13.52H13.5951V10.92ZM17.5192 10.92H20.3221V13.52H17.5192V10.92ZM5.74694 14.56H8.54986V17.16H5.74694V14.56ZM9.67102 14.56H12.4739V17.16H9.67102V14.56ZM13.5951 14.56H16.398V17.16H13.5951V14.56ZM17.5192 14.56H20.3221V17.16H17.5192V14.56ZM5.74694 18.2H8.54986V20.8H5.74694V18.2ZM9.67102 18.2H12.4739V20.8H9.67102V18.2ZM13.5951 18.2H16.398V20.8H13.5951V18.2ZM17.5192 18.2H20.3221V20.8H17.5192V18.2Z" fill="#454545"/>
</svg>
